<svg width="60" height="20" viewBox="0 0 60 20" fill="none" xmlns="http://www.w3.org/2000/svg">
<g clip-path="url(#clip0_337_1110)">
<path d="M54 7.565L54.485 8.71L54.72 9.265L55.32 9.315L56.555 9.42L55.615 10.235L55.16 10.63L55.295 11.22L55.575 12.425L54.515 11.785L54 11.465L53.485 11.775L52.425 12.415L52.705 11.21L52.84 10.62L52.385 10.225L51.445 9.41L52.68 9.305L53.28 9.255L53.515 8.7L54 7.565V7.565ZM54 5L52.595 8.315L49 8.62L51.73 10.985L50.91 14.5L54 12.635L57.09 14.5L56.27 10.985L59 8.62L55.405 8.315L54 5Z" fill="#333333"/>
</g>
<g clip-path="url(#clip1_337_1110)">
<path d="M42 12.635L45.09 14.5L44.27 10.985L47 8.62L43.405 8.315L42 5L40.595 8.315L37 8.62L39.73 10.985L38.91 14.5L42 12.635Z" fill="#333333"/>
</g>
<g clip-path="url(#clip2_337_1110)">
<path d="M30 12.635L33.09 14.5L32.27 10.985L35 8.62L31.405 8.315L30 5L28.595 8.315L25 8.62L27.73 10.985L26.91 14.5L30 12.635Z" fill="#333333"/>
</g>
<g clip-path="url(#clip3_337_1110)">
<path d="M18 12.635L21.09 14.5L20.27 10.985L23 8.62L19.405 8.315L18 5L16.595 8.315L13 8.62L15.73 10.985L14.91 14.5L18 12.635Z" fill="#333333"/>
</g>
<g clip-path="url(#clip4_337_1110)">
<path d="M6 12.635L9.09 14.5L8.27 10.985L11 8.62L7.405 8.315L6 5L4.595 8.315L1 8.62L3.73 10.985L2.91 14.5L6 12.635Z" fill="#333333"/>
</g>
<defs>
<clipPath id="clip0_337_1110">
<rect width="12" height="12" fill="white" transform="translate(48 4)"/>
</clipPath>
<clipPath id="clip1_337_1110">
<rect width="12" height="12" fill="white" transform="translate(36 4)"/>
</clipPath>
<clipPath id="clip2_337_1110">
<rect width="12" height="12" fill="white" transform="translate(24 4)"/>
</clipPath>
<clipPath id="clip3_337_1110">
<rect width="12" height="12" fill="white" transform="translate(12 4)"/>
</clipPath>
<clipPath id="clip4_337_1110">
<rect width="12" height="12" fill="white" transform="translate(0 4)"/>
</clipPath>
</defs>
</svg>
